<?xml version="1.0" encoding="utf-8"?>
<!-- Generator: Adobe Illustrator 15.0.0, SVG Export Plug-In . SVG Version: 6.00 Build 0)  -->
<!DOCTYPE svg PUBLIC "-//W3C//DTD SVG 1.1//EN" "http://www.w3.org/Graphics/SVG/1.1/DTD/svg11.dtd">
<svg version="1.1" id="圖層_1" xmlns="http://www.w3.org/2000/svg" xmlns:xlink="http://www.w3.org/1999/xlink" x="0px" y="0px"
	 width="612px" height="612px" viewBox="0 90 612 612" enable-background="new 0 90 612 612" xml:space="preserve">
<path fill="#9C9C9C" d="M306,208.452c-65.395,0-118.452,53.056-118.452,118.452c0,65.395,53.057,118.451,118.452,118.451
	c65.396,0,118.451-53.056,118.451-118.451C424.451,261.508,371.396,208.452,306,208.452z M306,386.129
	c-32.698,0-59.226-26.528-59.226-59.226c0-32.698,26.528-59.226,59.226-59.226c32.697,0,59.226,26.528,59.226,59.226
	C365.226,359.601,338.697,386.129,306,386.129z M306,90C136.959,90,0,226.959,0,396c0,169.04,136.959,306,306,306
	c169.04,0,306-136.96,306-306C612,226.959,475.04,90,306,90z M306,642.774c-61.323,0-117.341-22.58-160.526-59.72
	c18.384-28.379,49.848-47.627,85.877-48.737c25.665,7.896,50.095,11.845,74.649,11.845c24.554,0,48.984-3.825,74.649-11.845
	c36.029,1.233,67.492,20.358,85.877,48.737C423.341,620.194,367.323,642.774,306,642.774z M506.751,539.006
	c-30.106-38.744-76.624-64.038-129.68-64.038c-12.586,0-32.081,11.845-71.071,11.845c-38.867,0-58.485-11.845-71.071-11.845
	c-52.933,0-99.45,25.294-129.68,64.038C76.376,498.658,59.226,449.304,59.226,396c0-136.096,110.678-246.774,246.774-246.774
	c136.096,0,246.774,110.679,246.774,246.774C552.774,449.304,535.623,498.658,506.751,539.006z"/>
</svg>
